<?xml version="1.0" standalone="no"?><!DOCTYPE svg PUBLIC "-//W3C//DTD SVG 1.1//EN" "http://www.w3.org/Graphics/SVG/1.1/DTD/svg11.dtd"><svg t="1680853385349" class="icon" viewBox="0 0 1024 1024" version="1.1" xmlns="http://www.w3.org/2000/svg" p-id="4754" xmlns:xlink="http://www.w3.org/1999/xlink" width="200" height="200"><path d="M724.834258 608.101913a93.905865 93.905865 0 0 1-7.963909 6.223226c-1.240094 0.932915-2.51432 1.820322-3.765791 2.730483C532.06215 745.035641 513.642766 894.438576 512.072738 934.121597L511.993099 932.983896c-10.865047-161.348798-140.983945-271.91061-187.959632-306.747024a341.31039 341.31039 0 1 1 400.800791-18.134959zM511.993099 944.360909s-0.182032-3.674775 0.079639-10.239312C525.201811 1129.339763 511.993099 944.360909 511.993099 944.360909z" fill="#EC563E" p-id="4755"></path><path d="M511.993099 0.068831a341.242128 341.242128 0 0 1 212.841159 608.033082 93.905865 93.905865 0 0 1-7.963909 6.223226c-1.240094 0.932915-2.51432 1.820322-3.765791 2.730483a634.404998 634.404998 0 0 0-33.994515 25.803066L274.031495 96.773441A340.104426 340.104426 0 0 1 511.993099 0.068831z" fill="#FFFFFF" opacity=".2" p-id="4756"></path><path d="M511.993099 505.947714a196.071442 196.071442 0 1 1 193.409221-196.048688 194.740331 194.740331 0 0 1-193.409221 196.048688z m0-319.876098a123.838786 123.838786 0 1 0 122.154988 123.82741A122.996887 122.996887 0 0 0 511.993099 186.071616z m0 196.060065a72.232655 72.232655 0 1 1 71.254232-72.232655A71.754821 71.754821 0 0 1 511.993099 382.120304z m-132.337415 92.85918c0.409572 0 0.796391 0.102393 1.194586 0.125147l3.026286-4.914869a200.758771 200.758771 0 0 0 250.794874 4.107101l1.626913 2.355042a20.046297 20.046297 0 0 1 7.963909-1.672421 20.603771 20.603771 0 0 1 2.355042 41.036886 239.645402 239.645402 0 0 1-269.635208 0 20.603771 20.603771 0 0 1 2.673598-41.036886z" fill="#FFFFFF" p-id="4757"></path></svg>