<?xml version="1.0" standalone="no"?><!DOCTYPE svg PUBLIC "-//W3C//DTD SVG 1.1//EN" "http://www.w3.org/Graphics/SVG/1.1/DTD/svg11.dtd"><svg t="1680874821922" class="icon" viewBox="0 0 1024 1024" version="1.1" xmlns="http://www.w3.org/2000/svg" p-id="8316" xmlns:xlink="http://www.w3.org/1999/xlink" width="200" height="200"><path d="M512.099991 512m-344.244706 0a344.244706 344.244706 0 1 0 688.489411 0 344.244706 344.244706 0 1 0-688.489411 0Z" fill="#FFC824" p-id="8317"></path><path d="M512.099991 1024A512 512 0 0 1 44.071755 304.188235a30.117647 30.117647 0 0 1 39.755294-15.36 30.117647 30.117647 0 0 1 15.36 39.755294A445.741176 445.741176 0 0 0 60.335285 512 451.764706 451.764706 0 1 0 399.459991 74.390588a30.117647 30.117647 0 1 1-15.058824-58.428235A520.432941 520.432941 0 0 1 512.099991 0a512 512 0 0 1 0 1024z" fill="#6B400D" p-id="8318"></path><path d="M512.099991 244.856471a30.117647 30.117647 0 0 1-30.117647-30.117647V167.755294a30.117647 30.117647 0 0 1 60.235294 0v46.98353a30.117647 30.117647 0 0 1-30.117647 30.117647zM214.838814 542.117647H167.855285a30.117647 30.117647 0 0 1 0-60.235294h46.983529a30.117647 30.117647 0 1 1 0 60.235294zM512.099991 886.362353a30.117647 30.117647 0 0 1-30.117647-30.117647v-46.98353a30.117647 30.117647 0 0 1 60.235294 0v46.98353a30.117647 30.117647 0 0 1-30.117647 30.117647zM856.344696 542.117647h-46.983529a30.117647 30.117647 0 0 1 0-60.235294h46.983529a30.117647 30.117647 0 0 1 0 60.235294zM736.476461 669.515294a34.032941 34.032941 0 0 1-15.058823-3.915294l-224.075294-127.397647a30.117647 30.117647 0 0 1-14.155295-17.769412l-46.983529-162.635294a30.117647 30.117647 0 0 1 57.825882-16.564706l43.670589 150.588235 213.534117 120.470589a30.117647 30.117647 0 0 1 11.444706 40.96 30.117647 30.117647 0 0 1-26.202353 16.263529zM207.911755 168.357647a30.117647 30.117647 0 0 1-18.974117-53.609412c9.336471-7.529412 18.672941-14.456471 28.310588-21.383529a30.117647 30.117647 0 0 1 34.635294 49.091765c-8.432941 6.023529-16.865882 12.348235-24.997647 18.974117a30.117647 30.117647 0 0 1-18.974118 6.927059z" fill="#6B400D" p-id="8319"></path></svg>