<?xml version="1.0" standalone="no"?><!DOCTYPE svg PUBLIC "-//W3C//DTD SVG 1.1//EN" "http://www.w3.org/Graphics/SVG/1.1/DTD/svg11.dtd"><svg t="1680874911079" class="icon" viewBox="0 0 1070 1024" version="1.1" xmlns="http://www.w3.org/2000/svg" p-id="17387" xmlns:xlink="http://www.w3.org/1999/xlink" width="208.984375" height="200"><path d="M727.272727 469.317818a234.682182 234.682182 0 1 1 0 469.364364 234.682182 234.682182 0 0 1 0-469.364364z m-384-384a21.317818 21.317818 0 0 1 21.317818 21.364364v64h256V106.682182a21.317818 21.317818 0 0 1 21.364364-21.364364h42.635636a21.317818 21.317818 0 0 1 21.364364 21.364364v64h128c23.552 0 42.635636 19.083636 42.635636 42.635636l0.046546 256.977455a277.317818 277.317818 0 0 0-383.069091 383.115636l-342.295273-0.093091a42.682182 42.682182 0 0 1-42.682182-42.635636V213.317818c0-23.552 19.083636-42.635636 42.682182-42.635636H279.272727V106.682182a21.317818 21.317818 0 0 1 21.317818-21.364364h42.682182z m488.448 461.824h-206.196363v126.324364c0 83.968-5.445818 104.075636-47.429819 151.552l38.586182 25.925818c28.346182-34.443636 41.285818-62.836364 47.802182-103.424h125.253818v29.696c0 21.410909-2.327273 24.529455-14.754909 25.693091l-25.879273 2.327273 14.336 40.587636 20.852364-2.048c41.285818-3.723636 47.429818-10.565818 47.429818-52.596364v-244.037818z m-41.984 120.832v39.284364h-121.856c0.232727-6.144 0.279273-12.288 0.325818-18.850909v-20.433455h121.530182z m0-79.872v40.308364h-121.483636v-40.308364h121.483636zM769.954909 256H215.272727a21.317818 21.317818 0 0 0-20.992 17.501091l-0.325818 3.816727v64H791.272727V277.317818a21.317818 21.317818 0 0 0-21.317818-21.317818z" fill="#3B8DFF" p-id="17388"></path></svg>