<?xml version="1.0" standalone="no"?><!DOCTYPE svg PUBLIC "-//W3C//DTD SVG 1.1//EN" "http://www.w3.org/Graphics/SVG/1.1/DTD/svg11.dtd"><svg t="1681047188740" class="icon" viewBox="0 0 1024 1024" version="1.1" xmlns="http://www.w3.org/2000/svg" p-id="18975" xmlns:xlink="http://www.w3.org/1999/xlink" width="200" height="200"><path d="M504.064 83.7632c-235.1616 0-425.8304 190.6688-425.8304 425.8304s190.6688 425.8304 425.8304 425.8304 425.8304-190.6688 425.8304-425.8304-190.6176-425.8304-425.8304-425.8304z m164.9152 506.9824H467.4048c-23.6032 0-42.752-19.1488-42.752-42.752v-233.984c0-23.6032 19.1488-42.752 42.752-42.752 23.6032 0 42.752 19.1488 42.752 42.752v191.232h158.8224c23.6032 0 42.752 19.1488 42.752 42.752 0.0512 23.6032-19.0976 42.752-42.752 42.752z" fill="#BD50D3" p-id="18976"></path><path d="M832.4096 323.584c0-32.2048-2.7648-63.7952-8.0896-94.5152-78.0288-89.0368-192.5632-145.3056-320.256-145.3056-235.1616 0-425.8304 190.6688-425.8304 425.8304 0 156.0064 83.9168 292.3008 208.9984 366.4896 301.7728-3.9936 545.1776-249.7536 545.1776-552.4992z m-407.7568-9.6256c0-23.6032 19.1488-42.752 42.752-42.752 23.6032 0 42.752 19.1488 42.752 42.752v191.232h158.8224c23.6032 0 42.752 19.1488 42.752 42.752 0 23.6032-19.1488 42.752-42.752 42.752H467.4048c-23.6032 0-42.752-19.1488-42.752-42.752v-233.984z" fill="#C65EDB" p-id="18977"></path><path d="M78.2336 509.5936c0 60.5184 12.6976 118.016 35.4304 170.1376 4.9664 0.1536 9.984 0.2048 15.0016 0.2048 116.4288 0 224.4096-36.0448 313.4976-97.536a42.63424 42.63424 0 0 1-17.5104-34.4576v-233.984c0-23.6032 19.1488-42.752 42.752-42.752 23.6032 0 42.752 19.1488 42.752 42.752v191.232h21.6576c92.6208-98.816 149.4016-231.68 149.4016-377.856 0-1.6896-0.0512-3.328-0.0512-4.9664a423.82848 423.82848 0 0 0-177.1008-38.6048c-235.1616 0-425.8304 190.6688-425.8304 425.8304z" fill="#CA6EE0" p-id="18978"></path><path d="M79.616 477.0816c211.8656-34.6624 383.232-189.8496 441.344-392.8576-5.5808-0.2048-11.2128-0.4096-16.896-0.4096-224.2048-0.0512-407.808 173.312-424.448 393.2672z" fill="#D786EA" p-id="18979"></path></svg>