<?xml version="1.0" standalone="no"?><!DOCTYPE svg PUBLIC "-//W3C//DTD SVG 1.1//EN" "http://www.w3.org/Graphics/SVG/1.1/DTD/svg11.dtd"><svg t="1680176108276" class="icon" viewBox="0 0 1024 1024" version="1.1" xmlns="http://www.w3.org/2000/svg" p-id="23316" xmlns:xlink="http://www.w3.org/1999/xlink" width="200" height="200"><path d="M753.152 52.736c-27.648 7.68-44.032 35.84-36.864 64s58.368 83.456 75.264 78.848 33.28-77.824 25.6-105.472-36.352-44.544-64-37.376zM912.384 152.064c-24.064-15.872-56.32-9.216-72.192 14.336-15.872 24.064-24.064 98.816-9.728 108.544 14.336 9.728 80.384-26.624 96.256-50.688s9.216-56.32-14.336-72.192zM598.016 163.84L206.336 268.8c-84.992 22.528-135.168 110.08-112.64 195.072L198.656 855.04c22.528 84.992 110.08 135.168 195.072 112.64l391.168-104.96c84.992-22.528 135.168-110.08 112.64-195.072L792.576 276.48c-22.528-84.992-110.08-135.168-194.56-112.64z m74.24 232.448l25.088 94.208c29.696 111.616-36.352 226.816-148.48 257.024s-226.816-36.352-257.024-148.48l-25.088-94.208c-11.776-4.096-21.504-13.824-25.088-26.624-5.632-20.992 6.656-42.496 27.648-47.616 20.992-5.632 42.496 6.656 47.616 27.648 3.584 13.312 0 26.624-8.192 35.84l25.088 94.208c23.552 88.576 115.2 141.312 203.776 117.76s141.312-115.2 117.76-203.776l-25.088-94.208c-11.776-4.096-21.504-13.824-25.088-26.624-5.632-20.992 6.656-42.496 27.648-47.616 20.992-5.632 42.496 6.656 47.616 27.648 3.584 11.776 0 25.088-8.192 34.816z" fill="#FFAB5F" p-id="23317"></path></svg>