<?xml version="1.0" standalone="no"?><!DOCTYPE svg PUBLIC "-//W3C//DTD SVG 1.1//EN" "http://www.w3.org/Graphics/SVG/1.1/DTD/svg11.dtd"><svg t="1680874877124" class="icon" viewBox="0 0 1024 1024" version="1.1" xmlns="http://www.w3.org/2000/svg" p-id="12707" xmlns:xlink="http://www.w3.org/1999/xlink" width="200" height="200"><path d="M672 672m-240 0a240 240 0 1 0 480 0 240 240 0 1 0-480 0Z" fill="#FFF4E8" p-id="12708"></path><path d="M804.2 145.5H754v-26c0-22-18-40-40-40s-40 18-40 40v26H350v-26c0-22-18-40-40-40s-40 18-40 40v26h-50.2C152.7 145.5 96 202.2 96 269.3v551.4c0 67.1 56.7 123.8 123.8 123.8h584.4c67.1 0 123.8-56.7 123.8-123.8V269.3c0-67.1-56.7-123.8-123.8-123.8z m43.6 683.2c0 18-17.7 35.6-35.6 35.6H211.8c-18 0-35.6-17.6-35.6-35.6V261.3c0-18 17.6-35.6 35.6-35.6H270v29.8c0 22 18 40 40 40s40-18 40-40v-29.8h324v29.8c0 22 18 40 40 40s40-18 40-40v-29.8h58.2c18 0 35.6 17.7 35.6 35.6v567.4z" fill="#FE9120" p-id="12709"></path><path d="M596.3 394H419.7c-20.8 0-33.7 11.9-33.7 31.1s12.9 31.1 33.7 31.1H561c-4.4 24.6-25.4 51.9-47.5 80.7-32.6 42.4-69.6 90.6-69.6 147.5 0 12.5 1.7 30.3 9.7 44.6 7.7 13.8 19.6 21 34.6 21 19.4 0 35.2-16.2 35.2-36.1 0-8.2-0.5-15.1-0.8-21.1-0.3-5.1-0.7-10-0.7-15-0.2-30.2 24.1-63.3 49.9-98.3 31.1-42.2 66.3-90.1 66.3-143.9-0.1-29.9-11.8-41.6-41.8-41.6z" fill="#FE9120" p-id="12710"></path></svg>